Coordinates
version=1
nRows=19
nColumns=63
inDegrees=yes

Units are S.I. units (second, meters, Newtons, ...)
If the header above contains a line with 'inDegrees', this indicates whether rotational values are in degrees (yes) or radians (no).

endheader
time	pelvis_tilt	pelvis_list	pelvis_rotation	pelvis_tx	pelvis_ty	pelvis_tz	hip_flexion_r	hip_adduction_r	hip_rotation_r	knee_angle_r	knee_angle_r_beta	ankle_angle_r	subtalar_angle_r	mtp_angle_r	hip_flexion_l	hip_adduction_l	hip_rotation_l	knee_angle_l	knee_angle_l_beta	ankle_angle_l	subtalar_angle_l	mtp_angle_l	L5_S1_Flex_Ext	L5_S1_Lat_Bending	L5_S1_axial_rotation	L4_L5_Flex_Ext	L4_L5_Lat_Bending	L4_L5_axial_rotation	L3_L4_Flex_Ext	L3_L4_Lat_Bending	L3_L4_axial_rotation	L2_L3_Flex_Ext	L2_L3_Lat_Bending	L2_L3_axial_rotation	L1_L2_Flex_Ext	L1_L2_Lat_Bending	L1_L2_axial_rotation	L1_T12_Flex_Ext	L1_T12_Lat_Bending	L1_T12_axial_rotation	Abs_r3	Abs_r2	Abs_r1	Abs_t1	Abs_t2	neck_flexion	neck_bending	neck_rotation	arm_flex_r	arm_add_r	arm_rot_r	elbow_flex_r	pro_sup_r	wrist_flex_r	wrist_dev_r	arm_flex_l	arm_add_l	arm_rot_l	elbow_flex_l	pro_sup_l	wrist_flex_l	wrist_dev_l
2.816667	3.186120	-8.641233	89.511876	0.239375	1.066426	0.329735	-4.297506	1.371815	11.225172	8.581234	0.149771	27.637535	-9.587712	0.000000	-6.989621	-2.194156	-10.833744	6.442584	0.112444	32.122098	11.266909	0.000000	-0.261034	-0.058937	1.054582	-0.484766	-0.078386	1.120493	-0.428853	-0.143299	1.120493	-0.298336	-0.143299	0.922759	-0.242396	-0.120184	0.856848	-0.149155	-0.091293	0.790936	-1.864540	-0.666707	5.865266	0.000000	0.000000	21.476729	-0.635766	-3.254455	26.181085	-13.004027	21.503356	149.856508	88.311695	31.129283	0.319316	10.898614	-15.668617	28.249603	149.723816	89.153706	-43.404238	-24.105556
2.833333	3.180854	-8.857357	89.275788	0.239823	1.066318	0.330513	-4.053249	1.346987	11.304393	8.462025	0.147690	27.665305	-9.496125	0.000000	-6.888603	-2.133725	-10.898489	6.155613	0.107436	31.900019	11.085895	0.000000	-0.246718	-0.061920	1.086944	-0.458180	-0.082353	1.154878	-0.405333	-0.150551	1.154878	-0.281974	-0.150551	0.951076	-0.229102	-0.126266	0.883142	-0.140975	-0.095913	0.815208	-1.762282	-0.700447	6.045255	0.000000	0.000000	22.445115	-0.545084	-3.050234	26.806091	-12.939877	22.100716	149.852934	88.206650	29.821542	0.179918	11.366957	-15.649560	28.089912	149.716254	89.226247	-43.845633	-24.113074
2.850000	3.162324	-9.014902	89.037756	0.240248	1.066213	0.331145	-3.873993	1.307624	11.378637	8.351510	0.145761	27.727869	-9.397066	0.000000	-6.816567	-2.063683	-10.925688	5.935415	0.103593	31.785824	10.911715	0.000000	-0.234948	-0.066272	1.120021	-0.436321	-0.088141	1.190022	-0.385995	-0.161133	1.190022	-0.268522	-0.161133	0.980018	-0.218172	-0.135141	0.910017	-0.134249	-0.102655	0.840016	-1.678207	-0.749677	6.229220	0.000000	0.000000	23.284120	-0.430209	-2.864583	27.336700	-12.905661	22.613538	149.849388	88.119121	28.676930	0.129211	11.649015	-15.560210	27.725994	149.712090	89.272742	-43.675613	-24.132329
2.866667	3.145878	-9.118357	88.810084	0.240594	1.066081	0.331605	-3.752992	1.267920	11.436618	8.263952	0.144233	27.816711	-9.285613	0.000000	-6.773557	-1.997819	-10.907644	5.781522	0.100907	31.747359	10.715930	0.000000	-0.225445	-0.069067	1.149210	-0.418674	-0.091860	1.221036	-0.370384	-0.167930	1.221036	-0.257661	-0.167930	1.005559	-0.209348	-0.140842	0.933733	-0.128819	-0.106985	0.861908	-1.610332	-0.781303	6.391563	0.000000	0.000000	23.999176	-0.327265	-2.660918	27.809236	-12.917655	23.076688	149.845787	88.055493	27.591270	0.167778	11.718609	-15.399128	27.136528	149.708849	89.287044	-42.793890	-24.160701
2.883333	3.134050	-9.175064	88.582166	0.240875	1.065939	0.331873	-3.682319	1.230611	11.517264	8.202087	0.143153	27.901726	-9.205644	0.000000	-6.755800	-1.942672	-10.936083	5.696560	0.099424	31.759845	10.575779	0.000000	-0.217511	-0.070932	1.180323	-0.403940	-0.094339	1.254094	-0.357349	-0.172463	1.254094	-0.248593	-0.172463	1.032783	-0.201981	-0.144644	0.959013	-0.124286	-0.109873	0.885243	-1.553659	-0.802391	6.564604	0.000000	0.000000	24.559537	-0.238625	-2.508184	28.196440	-12.942480	23.382204	149.842130	88.017164	26.757530	0.296757	11.678204	-15.243526	26.614298	149.703623	89.314793	-41.933307	-24.189187
2.900000	3.129842	-9.195198	88.357618	0.241063	1.065780	0.331927	-3.650035	1.197767	11.618503	8.172124	0.142630	27.979015	-9.159436	0.000000	-6.754660	-1.898905	-10.996653	5.680408	0.099142	31.805334	10.469620	0.000000	-0.210675	-0.070949	1.212745	-0.391244	-0.094363	1.288542	-0.346118	-0.172506	1.288542	-0.240780	-0.172506	1.061152	-0.195633	-0.144680	0.985356	-0.120380	-0.109901	0.909559	-1.504829	-0.802594	6.744925	0.000000	0.000000	24.958996	-0.202921	-2.406833	28.486417	-12.983783	23.522851	149.838766	88.014150	26.135298	0.523405	11.553671	-15.100506	26.213083	149.696727	89.323371	-41.178625	-24.202692
2.916667	3.135939	-9.182200	88.136256	0.241164	1.065611	0.331748	-3.652378	1.172289	11.737944	8.175781	0.142694	28.045436	-9.143859	0.000000	-6.769862	-1.869566	-11.107994	5.729654	0.100001	31.887999	10.406834	0.000000	-0.204745	-0.069096	1.248257	-0.380232	-0.091898	1.326273	-0.336376	-0.168000	1.326273	-0.234003	-0.168000	1.092225	-0.190126	-0.140901	1.014209	-0.116991	-0.107030	0.936193	-1.462474	-0.781629	6.942430	0.000000	0.000000	25.176163	-0.236305	-2.389878	28.653957	-13.044383	23.467740	149.836293	88.048967	25.759112	0.846891	11.399550	-15.002977	26.018758	149.690637	89.303595	-40.700916	-24.196966
2.933333	3.150985	-9.138222	87.926647	0.241175	1.065447	0.331336	-3.686372	1.153151	11.873297	8.214332	0.143367	28.107030	-9.150359	0.000000	-6.800589	-1.854927	-11.266209	5.841203	0.101948	32.012481	10.392488	0.000000	-0.199719	-0.065836	1.286100	-0.370898	-0.087562	1.366481	-0.328118	-0.160074	1.366481	-0.228259	-0.160074	1.125337	-0.185459	-0.134253	1.044956	-0.114119	-0.101980	0.964575	-1.426571	-0.744753	7.152901	0.000000	0.000000	25.184567	-0.339311	-2.472692	28.671396	-13.121781	23.210622	149.835029	88.119174	25.697940	1.221859	11.240327	-14.960235	26.055342	149.687058	89.256422	-40.575402	-24.174111
2.950000	3.163235	-9.064399	87.740980	0.241117	1.065301	0.330715	-3.751550	1.132546	12.025392	8.285577	0.144611	28.166544	-9.187745	0.000000	-6.843778	-1.846790	-11.459123	6.015815	0.104996	32.177116	10.423558	0.000000	-0.196299	-0.063253	1.323904	-0.364547	-0.084127	1.406648	-0.322499	-0.153794	1.406648	-0.224350	-0.153794	1.158416	-0.182283	-0.128986	1.075672	-0.112165	-0.097980	0.992928	-1.402143	-0.715535	7.363156	0.000000	0.000000	24.967950	-0.491232	-2.654392	28.515571	-13.189291	22.739020	149.835351	88.202454	26.092233	1.637871	11.084383	-14.974254	26.294747	149.686117	89.186427	-40.768753	-24.135746
2.966667	3.181793	-8.957094	87.590897	0.240976	1.065171	0.329907	-3.853483	1.120256	12.187531	8.386996	0.146381	28.223163	-9.241392	0.000000	-6.900803	-1.856905	-11.681651	6.260731	0.109270	32.383825	10.492546	0.000000	-0.195681	-0.059996	1.358461	-0.363400	-0.079794	1.443364	-0.321485	-0.145873	1.443364	-0.223644	-0.145873	1.188653	-0.181710	-0.122343	1.103749	-0.111812	-0.092933	1.018845	-1.397733	-0.678683	7.555350	0.000000	0.000000	24.516926	-0.659846	-2.873658	28.177422	-13.262337	22.104537	149.837002	88.303127	26.881341	2.016475	10.925447	-15.030641	26.710656	149.687431	89.104521	-41.278865	-24.087389
2.983333	3.207887	-8.822917	87.482401	0.240752	1.065039	0.328943	-3.990891	1.117762	12.360735	8.505902	0.148456	28.270778	-9.308353	0.000000	-6.964615	-1.886951	-11.920346	6.577019	0.114791	32.616203	10.570679	0.000000	-0.197321	-0.056352	1.390457	-0.366445	-0.074949	1.477361	-0.324178	-0.137015	1.477361	-0.225518	-0.137015	1.216650	-0.183232	-0.114914	1.129746	-0.112749	-0.087290	1.042843	-1.409443	-0.637469	7.733306	0.000000	0.000000	23.826725	-0.823873	-3.129866	27.646036	-13.344098	21.324526	149.840028	88.396060	28.037102	2.330779	10.749476	-15.110170	27.286794	149.690299	89.020014	-42.043690	-24.037102
3.000000	3.242369	-8.660108	87.419601	0.240462	1.064902	0.327868	-4.168305	1.126714	12.544073	8.634101	0.150693	28.305061	-9.385565	0.000000	-7.035785	-1.940573	-12.197986	6.967929	0.121613	32.853979	10.673794	0.000000	-0.201193	-0.052585	1.422208	-0.373635	-0.069938	1.511096	-0.330540	-0.127855	1.511096	-0.229943	-0.127855	1.244432	-0.186828	-0.107232	1.155544	-0.114962	-0.081454	1.066656	-1.437101	-0.594854	7.909897	0.000000	0.000000	22.875951	-0.994169	-3.458240	26.911778	-13.411471	20.377830	149.844749	88.448787	29.614197	2.660309	10.590139	-15.206845	28.097541	149.694424	88.944527	-43.281040	-23.989364
3.016667	3.280174	-8.460237	87.381917	0.240126	1.064737	0.326743	-4.386164	1.141727	12.768284	8.779712	0.153235	28.339831	-9.491516	0.000000	-7.125082	-2.004447	-12.454629	7.429920	0.129677	33.085124	10.698331	0.000000	-0.210339	-0.048721	1.453800	-0.390621	-0.064799	1.544663	-0.345566	-0.118461	1.544663	-0.240396	-0.118461	1.272075	-0.195321	-0.099353	1.181213	-0.120188	-0.075469	1.090350	-1.502431	-0.551146	8.085601	0.000000	0.000000	21.718164	-1.128071	-3.756859	26.021131	-13.511909	19.402401	149.850019	88.488386	31.248551	2.996910	10.337787	-15.305333	28.932954	149.701635	88.882123	-44.399966	-23.956306
3.033333	3.333624	-8.223069	87.406500	0.239709	1.064541	0.325609	-4.650904	1.179095	12.995863	8.922714	0.155731	28.380229	-9.634037	0.000000	-7.225105	-2.098243	-12.678691	7.965593	0.139026	33.320064	10.681710	0.000000	-0.224426	-0.043457	1.479839	-0.416782	-0.057797	1.572329	-0.368709	-0.105660	1.572329	-0.256496	-0.105660	1.294859	-0.208402	-0.088617	1.202369	-0.128237	-0.067314	1.109879	-1.603052	-0.491590	8.230420	0.000000	0.000000	20.335890	-1.247023	-4.046225	24.991838	-13.640160	18.406650	149.853574	88.507456	32.833159	3.405147	9.974056	-15.393749	29.796028	149.710970	88.835140	-45.401079	-23.933334
3.050000	3.388408	-7.957823	87.461137	0.239276	1.064323	0.324519	-4.944194	1.223404	13.235953	9.062670	0.158173	28.440275	-9.794904	0.000000	-7.330146	-2.203240	-12.873104	8.558527	0.149374	33.569107	10.612546	0.000000	-0.243636	-0.038656	1.507018	-0.452457	-0.051413	1.601206	-0.400270	-0.093988	1.601206	-0.278452	-0.093988	1.318641	-0.226241	-0.078828	1.224452	-0.139214	-0.059878	1.130263	-1.740270	-0.437286	8.381581	0.000000	0.000000	18.776140	-1.370873	-4.340866	23.857960	-13.802005	17.470756	149.854205	88.495202	34.179828	3.954841	9.502081	-15.463997	30.647780	149.722644	88.805508	-46.219950	-23.925531
3.066667	3.446388	-7.679695	87.572820	0.238811	1.064084	0.323476	-5.259642	1.279568	13.456830	9.171919	0.160080	28.519506	-9.984000	0.000000	-7.424049	-2.324660	-12.995435	9.191662	0.160425	33.860088	10.518325	0.000000	-0.265019	-0.034320	1.533903	-0.492167	-0.045645	1.629771	-0.435400	-0.083445	1.629771	-0.302890	-0.083445	1.342165	-0.246097	-0.069985	1.246296	-0.151432	-0.053161	1.150427	-1.893005	-0.388231	8.531106	0.000000	0.000000	17.019769	-1.494956	-4.674050	22.632323	-13.974708	16.599425	149.850700	88.466514	35.197301	4.668682	8.917918	-15.511948	31.474522	149.737731	88.795781	-46.843801	-23.932224
3.083333	3.492653	-7.395046	87.697425	0.238407	1.063837	0.322497	-5.586846	1.330699	13.688046	9.246040	0.161374	28.636386	-10.175214	0.000000	-7.516893	-2.438491	-13.049231	9.822650	0.171438	34.199844	10.395895	0.000000	-0.287965	-0.032676	1.570308	-0.534779	-0.043459	1.668453	-0.473097	-0.079448	1.668453	-0.329115	-0.079448	1.374020	-0.267404	-0.066632	1.275875	-0.164543	-0.050615	1.177731	-2.056903	-0.369633	8.733583	0.000000	0.000000	15.093235	-1.608731	-5.080705	21.339358	-14.151188	15.849022	149.844471	88.399194	35.753167	5.558791	8.244316	-15.530043	32.217242	149.755386	88.805182	-47.205049	-23.953893
3.100000	3.520350	-7.105356	87.831489	0.238069	1.063601	0.321594	-5.918474	1.367641	13.894413	9.293606	0.162204	28.802439	-10.348749	0.000000	-7.614104	-2.538497	-13.066833	10.427790	0.181999	34.597119	10.316312	0.000000	-0.312922	-0.034136	1.615917	-0.581128	-0.045401	1.716912	-0.514100	-0.082998	1.716912	-0.357639	-0.082998	1.413927	-0.290580	-0.069610	1.312932	-0.178804	-0.052877	1.211938	-2.235174	-0.386153	8.987244	0.000000	0.000000	13.032396	-1.702436	-5.522308	20.009156	-14.333811	15.285085	149.834661	88.314412	35.715319	6.544641	7.520624	-15.512383	32.854961	149.776378	88.835050	-47.364675	-23.993252
3.116667	3.535287	-6.817539	87.982665	0.237787	1.063361	0.320783	-6.253830	1.399167	14.108762	9.304690	0.162397	29.003451	-10.551913	0.000000	-7.709471	-2.625017	-12.984380	10.994424	0.191889	35.044763	10.210632	0.000000	-0.338694	-0.037309	1.662749	-0.628988	-0.049621	1.766671	-0.556440	-0.090714	1.766671	-0.387093	-0.090714	1.454906	-0.314511	-0.076081	1.350984	-0.193530	-0.057792	1.247062	-2.419254	-0.422051	9.247713	0.000000	0.000000	10.857417	-1.791598	-5.942096	18.713325	-14.527420	14.971516	149.811090	88.215329	34.983937	7.593775	6.696165	-15.440292	33.191531	149.799210	88.885049	-46.945587	-24.048582
